<svg id="Слой_1" data-name="Слой 1" xmlns="http://www.w3.org/2000/svg" viewBox="0 0 488.16 94.49"><defs><style>.cls-1{fill:none;stroke:#1d1d1b;stroke-miterlimit:10;}</style></defs><polygon class="cls-1" points="49.68 1.13 64.69 31.56 98.28 36.44 73.98 60.13 79.71 93.58 49.68 77.78 19.64 93.58 25.38 60.13 1.07 36.44 34.66 31.56 49.68 1.13"/><polygon class="cls-1" points="146.88 1.13 161.9 31.56 195.48 36.44 171.18 60.13 176.91 93.58 146.88 77.78 116.84 93.58 122.58 60.13 98.28 36.44 131.86 31.56 146.88 1.13"/><polygon class="cls-1" points="244.08 1.13 259.1 31.56 292.68 36.44 268.38 60.13 274.12 93.58 244.08 77.78 214.04 93.58 219.78 60.13 195.48 36.44 229.06 31.56 244.08 1.13"/><polygon class="cls-1" points="341.28 1.13 356.3 31.56 389.88 36.44 365.58 60.13 371.32 93.58 341.28 77.78 311.25 93.58 316.98 60.13 292.68 36.44 326.26 31.56 341.28 1.13"/><polygon class="cls-1" points="438.49 1.13 453.5 31.56 487.09 36.44 462.79 60.13 468.52 93.58 438.49 77.78 408.45 93.58 414.18 60.13 389.88 36.44 423.47 31.56 438.49 1.13"/></svg>